<svg xmlns="http://www.w3.org/2000/svg" width="33.74" height="32.366" viewBox="0 0 33.74 32.366">
  <g id="Group_424" data-name="Group 424" transform="translate(-1693.26 -1689)">
    <g id="add_circle_outline_black_24dp" transform="translate(1703 1689)">
      <path id="Path_456" data-name="Path 456" d="M0,0H24V24H0Z" fill="none"/>
      <path id="Path_457" data-name="Path 457" d="M13,7H11v4H7v2h4v4h2V13h4V11H13ZM12,2A10,10,0,1,0,22,12,10,10,0,0,0,12,2Zm0,18a8,8,0,1,1,8-8A8.011,8.011,0,0,1,12,20Z"/>
    </g>
    <path id="capsules-solid" d="M28.671,44.786C27.073,42.452,27.234,42.4,26,41.27c-2.552,1.09-9.026-1.1-9.026-1.1s-3.964-4.366-5.438-3.088A5.58,5.58,0,0,0,5.783,32,5.572,5.572,0,0,0,0,37.341V48.024a5.572,5.572,0,0,0,5.783,5.341,5.572,5.572,0,0,0,5.783-5.341V40.914a5.382,5.382,0,0,0,.661,1.192L19,51.039a6.051,6.051,0,0,0,4.843,2.327,6.211,6.211,0,0,0,3.382-.987,5.193,5.193,0,0,0,1.446-7.593Zm-20.41-2.1H3.3V37.341a2.39,2.39,0,0,1,2.478-2.289,2.39,2.39,0,0,1,2.478,2.289Zm10.058,2.141-3.387-4.469c-.4-.525,1.646-.06,7.647,1.717Z" transform="translate(1693.26 1668)"/>
  </g>
</svg>
